<?xml version="1.0" encoding="UTF-8"?>
<svg xmlns="http://www.w3.org/2000/svg" version="1.1" width="890" height="530" viewBox="0 0 890 530" class="chart">
  <style>
    <![CDATA[
      text { font: 12px Verdana, Helvetica, Arial, sans-serif; }
      .title { font-size: 16px; font-weight: bold; }
      .axis { stroke: #333; stroke-width: 1; }
      .grid { stroke: #ebebeb; stroke-width: 1; }
    ]]>
  </style>
  <text x="445" y="26" text-anchor="middle" class="title">Encoder throughput by fixture (ops/sec, log scale)</text>
  <g transform="translate(22, 220) rotate(-90)">
    <text text-anchor="middle">ops/sec (log10)</text>
  </g>
  <line class="axis" x1="90" y1="60" x2="90" y2="380" />
  <line class="grid" x1="90" x2="870" y1="380" y2="380" />
  <text x="84" y="384" text-anchor="end">10</text>
  <line class="grid" x1="90" x2="870" y1="326.6666666666667" y2="326.6666666666667" />
  <text x="84" y="330.6666666666667" text-anchor="end">100</text>
  <line class="grid" x1="90" x2="870" y1="273.33333333333337" y2="273.33333333333337" />
  <text x="84" y="277.33333333333337" text-anchor="end">1K</text>
  <line class="grid" x1="90" x2="870" y1="220" y2="220" />
  <text x="84" y="224" text-anchor="end">10K</text>
  <line class="grid" x1="90" x2="870" y1="166.66666666666669" y2="166.66666666666669" />
  <text x="84" y="170.66666666666669" text-anchor="end">100K</text>
  <line class="grid" x1="90" x2="870" y1="113.33333333333331" y2="113.33333333333331" />
  <text x="84" y="117.33333333333331" text-anchor="end">1M</text>
  <line class="grid" x1="90" x2="870" y1="60" y2="60" />
  <text x="84" y="64" text-anchor="end">10M</text>
  <line class="axis" x1="90" y1="380" x2="870" y2="380" />
  <rect x="99" y="111.88171136804891" width="18" height="268.1182886319511" fill="#8b8b8b">
    <title>toBinary: 1,064,677 ops/sec (SimpleMessage)</title>
  </rect>
  <rect x="119" y="108.53141749826659" width="18" height="271.4685825017334" fill="#ffa600">
    <title>toBinaryFast: 1,230,371 ops/sec (SimpleMessage)</title>
  </rect>
  <g transform="translate(129, 392) rotate(35)">
    <text text-anchor="start">SimpleMessage</text>
  </g>
  <rect x="177" y="260.0050642905818" width="18" height="119.9949357094182" fill="#8b8b8b">
    <title>toBinary: 1,778 ops/sec (ExportTraceRequest (100 spans))</title>
  </rect>
  <rect x="197" y="246.26056082661995" width="18" height="133.73943917338005" fill="#ffa600">
    <title>toBinaryFast: 3,218 ops/sec (ExportTraceRequest (100 spans))</title>
  </rect>
  <rect x="217" y="250.53570403791952" width="18" height="129.46429596208048" fill="#347fc4">
    <title>protobufjs: 2,676 ops/sec (ExportTraceRequest (100 spans))</title>
  </rect>
  <g transform="translate(207, 392) rotate(35)">
    <text text-anchor="start">ExportTraceRequest (100 spans)</text>
  </g>
  <rect x="255" y="245.565359378148" width="18" height="134.434640621852" fill="#8b8b8b">
    <title>toBinary: 3,316 ops/sec (ExportMetricsRequest (50 series))</title>
  </rect>
  <rect x="275" y="230.23160233783656" width="18" height="149.76839766216344" fill="#ffa600">
    <title>toBinaryFast: 6,429 ops/sec (ExportMetricsRequest (50 series))</title>
  </rect>
  <g transform="translate(285, 392) rotate(35)">
    <text text-anchor="start">ExportMetricsRequest (50 series)</text>
  </g>
  <rect x="333" y="245.98205917345263" width="18" height="134.01794082654737" fill="#8b8b8b">
    <title>toBinary: 3,257 ops/sec (ExportLogsRequest (100 records))</title>
  </rect>
  <rect x="353" y="231.70857954845056" width="18" height="148.29142045154944" fill="#ffa600">
    <title>toBinaryFast: 6,032 ops/sec (ExportLogsRequest (100 records))</title>
  </rect>
  <g transform="translate(363, 392) rotate(35)">
    <text text-anchor="start">ExportLogsRequest (100 records)</text>
  </g>
  <rect x="411" y="244.59744146960017" width="18" height="135.40255853039983" fill="#8b8b8b">
    <title>toBinary: 3,458 ops/sec (K8sPodList (20 pods))</title>
  </rect>
  <rect x="431" y="234.08298060419895" width="18" height="145.91701939580105" fill="#ffa600">
    <title>toBinaryFast: 5,444 ops/sec (K8sPodList (20 pods))</title>
  </rect>
  <g transform="translate(441, 392) rotate(35)">
    <text text-anchor="start">K8sPodList (20 pods)</text>
  </g>
  <rect x="489" y="144.85487469023806" width="18" height="235.14512530976194" fill="#8b8b8b">
    <title>toBinary: 256,431 ops/sec (GraphQLRequest)</title>
  </rect>
  <rect x="509" y="140.25502179438163" width="18" height="239.74497820561837" fill="#ffa600">
    <title>toBinaryFast: 312,765 ops/sec (GraphQLRequest)</title>
  </rect>
  <g transform="translate(519, 392) rotate(35)">
    <text text-anchor="start">GraphQLRequest</text>
  </g>
  <rect x="567" y="141.72371922210928" width="18" height="238.27628077789072" fill="#8b8b8b">
    <title>toBinary: 293,549 ops/sec (GraphQLResponse)</title>
  </rect>
  <rect x="587" y="134.38937362358257" width="18" height="245.61062637641743" fill="#ffa600">
    <title>toBinaryFast: 402,902 ops/sec (GraphQLResponse)</title>
  </rect>
  <g transform="translate(597, 392) rotate(35)">
    <text text-anchor="start">GraphQLResponse</text>
  </g>
  <rect x="645" y="135.77708138423023" width="18" height="244.22291861576977" fill="#8b8b8b">
    <title>toBinary: 379,472 ops/sec (RpcRequest)</title>
  </rect>
  <rect x="665" y="131.5458322042319" width="18" height="248.4541677957681" fill="#ffa600">
    <title>toBinaryFast: 455,529 ops/sec (RpcRequest)</title>
  </rect>
  <g transform="translate(675, 392) rotate(35)">
    <text text-anchor="start">RpcRequest</text>
  </g>
  <rect x="723" y="125.98435042006585" width="18" height="254.01564957993415" fill="#8b8b8b">
    <title>toBinary: 579,153 ops/sec (RpcResponse)</title>
  </rect>
  <rect x="743" y="119.49474747864633" width="18" height="260.50525252135367" fill="#ffa600">
    <title>toBinaryFast: 766,432 ops/sec (RpcResponse)</title>
  </rect>
  <g transform="translate(753, 392) rotate(35)">
    <text text-anchor="start">RpcResponse</text>
  </g>
  <rect x="801" y="218.11507983629693" width="18" height="161.88492016370307" fill="#8b8b8b">
    <title>toBinary: 10,848 ops/sec (StressMessage (depth=8, width=200))</title>
  </rect>
  <rect x="821" y="206.3418622423161" width="18" height="173.6581377576839" fill="#ffa600">
    <title>toBinaryFast: 18,034 ops/sec (StressMessage (depth=8, width=200))</title>
  </rect>
  <g transform="translate(831, 392) rotate(35)">
    <text text-anchor="start">StressMessage (depth=8, width=200)</text>
  </g>
  <g transform="translate(0, 36)">
    <rect x="90" y="0" width="14" height="10" fill="#8b8b8b" />
    <text x="108" y="9">toBinary</text>
    <rect x="180" y="0" width="14" height="10" fill="#ffa600" />
    <text x="198" y="9">toBinaryFast</text>
    <rect x="298" y="0" width="14" height="10" fill="#347fc4" />
    <text x="316" y="9">protobufjs</text>
  </g>
</svg>
