<?xml version="1.0" encoding="UTF-8"?>
<svg xmlns="http://www.w3.org/2000/svg" version="1.1" width="890" height="530" viewBox="0 0 890 530" class="chart">
  <style>
    <![CDATA[
      text { font: 12px Verdana, Helvetica, Arial, sans-serif; }
      .title { font-size: 16px; font-weight: bold; }
      .axis { stroke: #333; stroke-width: 1; }
      .grid { stroke: #ebebeb; stroke-width: 1; }
    ]]>
  </style>
  <text x="445" y="26" text-anchor="middle" class="title">Encoder throughput by fixture (ops/sec, log scale)</text>
  <g transform="translate(22, 220) rotate(-90)">
    <text text-anchor="middle">ops/sec (log10)</text>
  </g>
  <line class="axis" x1="90" y1="60" x2="90" y2="380" />
  <line class="grid" x1="90" x2="870" y1="380" y2="380" />
  <text x="84" y="384" text-anchor="end">10</text>
  <line class="grid" x1="90" x2="870" y1="326.6666666666667" y2="326.6666666666667" />
  <text x="84" y="330.6666666666667" text-anchor="end">100</text>
  <line class="grid" x1="90" x2="870" y1="273.33333333333337" y2="273.33333333333337" />
  <text x="84" y="277.33333333333337" text-anchor="end">1K</text>
  <line class="grid" x1="90" x2="870" y1="220" y2="220" />
  <text x="84" y="224" text-anchor="end">10K</text>
  <line class="grid" x1="90" x2="870" y1="166.66666666666669" y2="166.66666666666669" />
  <text x="84" y="170.66666666666669" text-anchor="end">100K</text>
  <line class="grid" x1="90" x2="870" y1="113.33333333333331" y2="113.33333333333331" />
  <text x="84" y="117.33333333333331" text-anchor="end">1M</text>
  <line class="grid" x1="90" x2="870" y1="60" y2="60" />
  <text x="84" y="64" text-anchor="end">10M</text>
  <line class="axis" x1="90" y1="380" x2="870" y2="380" />
  <rect x="99" y="105.67906381470493" width="18" height="274.32093618529507" fill="#8b8b8b">
    <title>toBinary: 1,391,610 ops/sec (SimpleMessage)</title>
  </rect>
  <rect x="119" y="99.52780306911455" width="18" height="280.47219693088545" fill="#ffa600">
    <title>toBinaryFast: 1,814,904 ops/sec (SimpleMessage)</title>
  </rect>
  <g transform="translate(129, 392) rotate(35)">
    <text text-anchor="start">SimpleMessage</text>
  </g>
  <rect x="177" y="288.24115836424" width="18" height="91.75884163576" fill="#8b8b8b">
    <title>toBinary: 525 ops/sec (ExportTraceRequest (100 spans))</title>
  </rect>
  <rect x="197" y="252.10324538347683" width="18" height="127.89675461652317" fill="#ffa600">
    <title>toBinaryFast: 2,501 ops/sec (ExportTraceRequest (100 spans))</title>
  </rect>
  <rect x="217" y="247.05420396475535" width="18" height="132.94579603524465" fill="#347fc4">
    <title>protobufjs: 3,110 ops/sec (ExportTraceRequest (100 spans))</title>
  </rect>
  <g transform="translate(207, 392) rotate(35)">
    <text text-anchor="start">ExportTraceRequest (100 spans)</text>
  </g>
  <rect x="255" y="276.01717011444305" width="18" height="103.98282988555695" fill="#8b8b8b">
    <title>toBinary: 891 ops/sec (ExportMetricsRequest (50 series))</title>
  </rect>
  <rect x="275" y="237.13200496235152" width="18" height="142.86799503764848" fill="#ffa600">
    <title>toBinaryFast: 4,773 ops/sec (ExportMetricsRequest (50 series))</title>
  </rect>
  <g transform="translate(285, 392) rotate(35)">
    <text text-anchor="start">ExportMetricsRequest (50 series)</text>
  </g>
  <rect x="333" y="276.2875365532991" width="18" height="103.7124634467009" fill="#8b8b8b">
    <title>toBinary: 880 ops/sec (ExportLogsRequest (100 records))</title>
  </rect>
  <rect x="353" y="242.58353826141155" width="18" height="137.41646173858845" fill="#ffa600">
    <title>toBinaryFast: 3,772 ops/sec (ExportLogsRequest (100 records))</title>
  </rect>
  <g transform="translate(363, 392) rotate(35)">
    <text text-anchor="start">ExportLogsRequest (100 records)</text>
  </g>
  <rect x="411" y="281.1923084683127" width="18" height="98.80769153168728" fill="#8b8b8b">
    <title>toBinary: 712 ops/sec (K8sPodList (20 pods))</title>
  </rect>
  <rect x="431" y="244.2517645609025" width="18" height="135.7482354390975" fill="#ffa600">
    <title>toBinaryFast: 3,510 ops/sec (K8sPodList (20 pods))</title>
  </rect>
  <g transform="translate(441, 392) rotate(35)">
    <text text-anchor="start">K8sPodList (20 pods)</text>
  </g>
  <rect x="489" y="163.6347035354477" width="18" height="216.3652964645523" fill="#8b8b8b">
    <title>toBinary: 113,985 ops/sec (GraphQLRequest)</title>
  </rect>
  <rect x="509" y="149.04256048265694" width="18" height="230.95743951734306" fill="#ffa600">
    <title>toBinaryFast: 214,019 ops/sec (GraphQLRequest)</title>
  </rect>
  <g transform="translate(519, 392) rotate(35)">
    <text text-anchor="start">GraphQLRequest</text>
  </g>
  <rect x="567" y="158.00848537635997" width="18" height="221.99151462364003" fill="#8b8b8b">
    <title>toBinary: 145,325 ops/sec (GraphQLResponse)</title>
  </rect>
  <rect x="587" y="126.84108959924458" width="18" height="253.15891040075542" fill="#ffa600">
    <title>toBinaryFast: 558,123 ops/sec (GraphQLResponse)</title>
  </rect>
  <g transform="translate(597, 392) rotate(35)">
    <text text-anchor="start">GraphQLResponse</text>
  </g>
  <rect x="645" y="164.20892805480165" width="18" height="215.79107194519835" fill="#8b8b8b">
    <title>toBinary: 111,194 ops/sec (RpcRequest)</title>
  </rect>
  <rect x="665" y="136.13032449937933" width="18" height="243.86967550062067" fill="#ffa600">
    <title>toBinaryFast: 373,729 ops/sec (RpcRequest)</title>
  </rect>
  <g transform="translate(675, 392) rotate(35)">
    <text text-anchor="start">RpcRequest</text>
  </g>
  <rect x="723" y="154.20728880255734" width="18" height="225.79271119744266" fill="#8b8b8b">
    <title>toBinary: 171,243 ops/sec (RpcResponse)</title>
  </rect>
  <rect x="743" y="123.69117537536368" width="18" height="256.3088246246363" fill="#ffa600">
    <title>toBinaryFast: 639,426 ops/sec (RpcResponse)</title>
  </rect>
  <g transform="translate(753, 392) rotate(35)">
    <text text-anchor="start">RpcResponse</text>
  </g>
  <rect x="801" y="251.48556727833525" width="18" height="128.51443272166475" fill="#8b8b8b">
    <title>toBinary: 2,568 ops/sec (StressMessage (depth=8, width=200))</title>
  </rect>
  <rect x="821" y="211.58875312544592" width="18" height="168.41124687455408" fill="#ffa600">
    <title>toBinaryFast: 14,378 ops/sec (StressMessage (depth=8, width=200))</title>
  </rect>
  <g transform="translate(831, 392) rotate(35)">
    <text text-anchor="start">StressMessage (depth=8, width=200)</text>
  </g>
  <g transform="translate(0, 36)">
    <rect x="90" y="0" width="14" height="10" fill="#8b8b8b" />
    <text x="108" y="9">toBinary</text>
    <rect x="180" y="0" width="14" height="10" fill="#ffa600" />
    <text x="198" y="9">toBinaryFast</text>
    <rect x="298" y="0" width="14" height="10" fill="#347fc4" />
    <text x="316" y="9">protobufjs</text>
  </g>
</svg>
